<svg width="32" height="32" viewBox="0 0 32 32" fill="none" xmlns="http://www.w3.org/2000/svg">
<path d="M15.9989 29.9978C25.3333 29.9978 29.9978 23.7303 29.9978 15.9989C29.9978 8.26751 25.3333 2 15.9989 2C6.66443 2 2 8.26751 2 15.9989C2 23.7303 6.66443 29.9978 15.9989 29.9978Z" fill="url(#paint0_radial_163_1410)"></path>
<path d="M15.9989 29.9978C25.3333 29.9978 29.9978 23.7303 29.9978 15.9989C29.9978 8.26751 25.3333 2 15.9989 2C6.66443 2 2 8.26751 2 15.9989C2 23.7303 6.66443 29.9978 15.9989 29.9978Z" fill="url(#paint1_radial_163_1410)"></path>
<path d="M15.9989 29.9978C25.3333 29.9978 29.9978 23.7303 29.9978 15.9989C29.9978 8.26751 25.3333 2 15.9989 2C6.66443 2 2 8.26751 2 15.9989C2 23.7303 6.66443 29.9978 15.9989 29.9978Z" fill="url(#paint2_radial_163_1410)" fill-opacity="0.6"></path>
<defs>
<radialGradient id="paint0_radial_163_1410" cx="0" cy="0" r="1" gradientUnits="userSpaceOnUse" gradientTransform="translate(19 7) rotate(100.923) scale(29.0258)">
<stop stop-color="#00F397"></stop>
<stop offset="0.493469" stop-color="#00D26A"></stop>
<stop offset="1" stop-color="#8D65C5"></stop>
</radialGradient>
<radialGradient id="paint1_radial_163_1410" cx="0" cy="0" r="1" gradientUnits="userSpaceOnUse" gradientTransform="translate(16 12.5) rotate(90) scale(19.5)">
<stop offset="0.81119" stop-color="#A7A1F6" stop-opacity="0"></stop>
<stop offset="0.972655" stop-color="#A092FF"></stop>
</radialGradient>
<radialGradient id="paint2_radial_163_1410" cx="0" cy="0" r="1" gradientUnits="userSpaceOnUse" gradientTransform="translate(18 14) rotate(135) scale(41.0122)">
<stop offset="0.314853" stop-opacity="0"></stop>
<stop offset="1"></stop>
</radialGradient>
</defs>

<path fill-rule="evenodd" clip-rule="evenodd" d="M15 10.5C15 11.9239 14.3387 13.1933 13.3064 14.0179C12.5033 13.7485 11.4768 13.5 10.5 13.5C9.5232 13.5 8.49671 13.7485 7.69357 14.0179C6.66132 13.1933 6 11.9239 6 10.5C6 8.01472 8.01472 6 10.5 6C12.9853 6 15 8.01472 15 10.5ZM26 10.5C26 11.9239 25.3387 13.1933 24.3064 14.0179C23.5033 13.7485 22.4768 13.5 21.5 13.5C20.5232 13.5 19.4967 13.7485 18.6936 14.0179C17.6613 13.1933 17 11.9239 17 10.5C17 8.01472 19.0147 6 21.5 6C23.9853 6 26 8.01472 26 10.5Z" fill="white"></path>
<path fill-rule="evenodd" clip-rule="evenodd" d="M14 10.5C14 11.9342 13.2606 13.167 12.2022 13.7076C11.6539 13.5842 11.0685 13.5 10.5 13.5C10.1875 13.5 9.87 13.5254 9.55631 13.5688C8.62865 12.9736 8 11.8224 8 10.5C8 8.567 9.34315 7 11 7C12.6569 7 14 8.567 14 10.5ZM24 10.5C24 11.8224 23.3714 12.9736 22.4437 13.5688C22.13 13.5254 21.8125 13.5 21.5 13.5C20.9315 13.5 20.3461 13.5842 19.7978 13.7076C18.7394 13.167 18 11.9342 18 10.5C18 8.567 19.3431 7 21 7C22.6569 7 24 8.567 24 10.5Z" fill="url(#paint0_linear_161_171)"></path>
<defs>
<linearGradient id="paint0_linear_161_171" x1="22.1538" y1="7" x2="20.7245" y2="13.6484" gradientUnits="userSpaceOnUse">
<stop stop-color="#553B3E"></stop>
<stop offset="1" stop-color="#3D2432"></stop>
</linearGradient>
</defs>
<parsererror style="display: block; white-space: pre; border: 2px solid #c77; padding: 0 1em 0 1em; margin: 1em; background-color: #fdd; color: black"><h3>This page contains the following errors:</h3><div style="font-family:monospace;font-size:12px">error on line 16 at column 19: Specification mandates value for attribute async
</div><h3>Below is a rendering of the page up to the first error.</h3></parsererror>
  <head>
    <meta charset="UTF-8"></meta>
    <meta name="author" content="Diu"></meta>
    <meta property="og:title" content="Fluent Emoji Maker"></meta>
    <meta property="og:image" content="https://emoji.ddiu.io/banner.png"></meta>
    <meta property="description" content="Generate your own Fluent Emojis!"></meta>
    <meta property="og:description" content="Generate your own Fluent Emojis!"></meta>
    <meta property="og:url" content="https://emoji.ddiu.io/"></meta>
    <meta name="twitter:card" content="summary_large_image"></meta>
    <meta name="twitter:creator" content="@ddiu8081"></meta>
    <link rel="icon" type="image/svg+xml" href="/favicon.svg"></link>
    <meta name="viewport" content="width=device-width, initial-scale=1.0"></meta>
    <title>Fluent Emoji Maker</title></head>
<rect x="7.25" y="20.25" width="17.5" height="8.5" rx="1.25" fill="url(#paint0_linear_909_3185)" stroke="url(#paint1_linear_909_3185)" stroke-width="0.5"></rect>
<rect x="21" y="20" width="4" height="8" rx="1.5" fill="url(#paint2_radial_909_3185)"></rect>
<path fill-rule="evenodd" clip-rule="evenodd" d="M12.1756 22.0318C12.4341 22.1288 12.5651 22.417 12.4682 22.6756L12.3465 23H13.7785L14.0318 22.3245C14.1288 22.0659 14.417 21.9349 14.6756 22.0318C14.9341 22.1288 15.0651 22.417 14.9682 22.6756L14.8465 23H15C15.2761 23 15.5 23.2239 15.5 23.5C15.5 23.7762 15.2761 24 15 24H14.4715L14.0965 25H14.5C14.7761 25 15 25.2239 15 25.5C15 25.7762 14.7761 26 14.5 26H13.7215L13.4682 26.6756C13.3712 26.9341 13.083 27.0651 12.8244 26.9682C12.5659 26.8712 12.4349 26.583 12.5318 26.3245L12.6535 26H11.2215L10.9682 26.6756C10.8712 26.9341 10.583 27.0651 10.3244 26.9682C10.0659 26.8712 9.93488 26.583 10.0318 26.3245L10.1535 26H10C9.72386 26 9.5 25.7762 9.5 25.5C9.5 25.2239 9.72386 25 10 25H10.5285L10.9035 24H10.5C10.2239 24 10 23.7762 10 23.5C10 23.2239 10.2239 23 10.5 23H11.2785L11.5318 22.3245C11.6288 22.0659 11.917 21.9349 12.1756 22.0318ZM13.4035 24L13.0285 25H11.5965L11.9715 24H13.4035ZM18.9682 22.6756C19.0651 22.417 18.9341 22.1288 18.6756 22.0318C18.417 21.9349 18.1288 22.0659 18.0318 22.3245L16.5318 26.3245C16.4349 26.583 16.5659 26.8712 16.8244 26.9682C17.083 27.0651 17.3712 26.9341 17.4682 26.6756L18.9682 22.6756ZM19 27C19.2761 27 19.5 26.7762 19.5 26.5C19.5 26.2239 19.2761 26 19 26C18.7239 26 18.5 26.2239 18.5 26.5C18.5 26.7762 18.7239 27 19 27ZM22 22.5C22 22.2239 21.7761 22 21.5 22C21.2239 22 21 22.2239 21 22.5V24.5C21 24.7762 21.2239 25 21.5 25C21.7761 25 22 24.7762 22 24.5V22.5ZM16.5 23C16.7761 23 17 22.7762 17 22.5C17 22.2239 16.7761 22 16.5 22C16.2239 22 16 22.2239 16 22.5C16 22.7762 16.2239 23 16.5 23ZM22 26.5C22 26.7762 21.7761 27 21.5 27C21.2239 27 21 26.7762 21 26.5C21 26.2239 21.2239 26 21.5 26C21.7761 26 22 26.2239 22 26.5Z" fill="white"></path>
<defs>
<linearGradient id="paint0_linear_909_3185" x1="16" y1="29" x2="16" y2="26" gradientUnits="userSpaceOnUse">
<stop stop-color="#5A2A67"></stop>
<stop offset="1" stop-color="#553A55"></stop>
</linearGradient>
<linearGradient id="paint1_linear_909_3185" x1="7" y1="20.5" x2="25.5" y2="29" gradientUnits="userSpaceOnUse">
<stop stop-color="#463246"></stop>
<stop offset="1" stop-color="#463246" stop-opacity="0"></stop>
</linearGradient>
<radialGradient id="paint2_radial_909_3185" cx="0" cy="0" r="1" gradientUnits="userSpaceOnUse" gradientTransform="translate(24 21) rotate(90) scale(11 1.33006)">
<stop stop-color="#685A60"></stop>
<stop offset="0.738271" stop-color="#685A60" stop-opacity="0"></stop>
</radialGradient>
</defs>

<path d="M9.99994 21.5V18.4393C9.99994 17.6444 9.35554 17 8.56062 17C7.71986 17 7.05542 17.7181 7.04315 18.5588C7.02329 19.9202 6.8351 21.7216 5.99995 22C2.99985 23 1.99999 27.5 4.49994 29.5C6.5 31.1001 8.49994 31 9.99994 31H12.7639C13.4465 31 13.9999 30.4466 13.9999 29.7639C13.9999 29.2957 13.7354 28.8677 13.3167 28.6584L12.9999 28.5H13.7192C14.1781 28.5 14.5781 28.1877 14.6894 27.7425L14.7574 27.4701C14.8806 26.9774 14.5079 26.5 13.9999 26.5L14.3291 26.3354C14.7402 26.1298 14.9999 25.7096 14.9999 25.25C14.9999 24.7904 14.7402 24.3702 14.3291 24.1646L13.9999 24H15.7499C16.4403 24 16.9999 23.4404 16.9999 22.75C16.9999 22.0596 16.4403 21.5 15.7499 21.5H9.99994Z" fill="url(#paint0_radial_31_62)"></path>
<g filter="url(#filter0_f_31_62)">
<path fill-rule="evenodd" clip-rule="evenodd" d="M12.703 28.6881L12.7575 28.4701C12.8806 27.9774 12.5079 27.5 12 27.5L12.3291 27.3354C12.7403 27.1298 13 26.7096 13 26.25C13 25.7904 12.7403 25.3702 12.3291 25.1646L12 25H13.75C14.4403 25 15 24.4404 15 23.75C15 23.0596 14.4403 22.5 13.75 22.5H7.99996V19.4393C7.99996 18.6444 7.35555 18 6.56064 18C5.71988 18 5.05544 18.7181 5.04317 19.5588C5.02774 20.6166 4.91069 21.94 4.46753 22.6082C6.00472 25.6503 8.74961 27.8957 12.703 28.6881Z" fill="#E4694E"></path>
</g>
<path d="M9.99994 21.5V18.4393C9.99994 17.6444 9.35554 17 8.56062 17C7.71986 17 7.05542 17.7181 7.04315 18.5588C7.02329 19.9202 6.8351 21.7216 5.99995 22C2.99985 23 1.99999 27.5 4.49994 29.5C6.5 31.1001 8.49994 31 9.99994 31H12.7639C13.4465 31 13.9999 30.4466 13.9999 29.7639C13.9999 29.2957 13.7354 28.8677 13.3167 28.6584L12.9999 28.5H13.7192C14.1781 28.5 14.5781 28.1877 14.6894 27.7425L14.7574 27.4701C14.8806 26.9774 14.5079 26.5 13.9999 26.5L14.3291 26.3354C14.7402 26.1298 14.9999 25.7096 14.9999 25.25C14.9999 24.7904 14.7402 24.3702 14.3291 24.1646L13.9999 24H15.7499C16.4403 24 16.9999 23.4404 16.9999 22.75C16.9999 22.0596 16.4403 21.5 15.7499 21.5H9.99994Z" fill="url(#paint1_radial_31_62)"></path>
<path d="M9.99994 21.5V18.4393C9.99994 17.6444 9.35554 17 8.56062 17C7.71986 17 7.05542 17.7181 7.04315 18.5588C7.02329 19.9202 6.8351 21.7216 5.99995 22C2.99985 23 1.99999 27.5 4.49994 29.5C6.5 31.1001 8.49994 31 9.99994 31H12.7639C13.4465 31 13.9999 30.4466 13.9999 29.7639C13.9999 29.2957 13.7354 28.8677 13.3167 28.6584L12.9999 28.5H13.7192C14.1781 28.5 14.5781 28.1877 14.6894 27.7425L14.7574 27.4701C14.8806 26.9774 14.5079 26.5 13.9999 26.5L14.3291 26.3354C14.7402 26.1298 14.9999 25.7096 14.9999 25.25C14.9999 24.7904 14.7402 24.3702 14.3291 24.1646L13.9999 24H15.7499C16.4403 24 16.9999 23.4404 16.9999 22.75C16.9999 22.0596 16.4403 21.5 15.7499 21.5H9.99994Z" fill="url(#paint2_radial_31_62)"></path>
<g opacity="0.8" filter="url(#filter1_f_31_62)">
<rect x="10" y="23" width="7" height="1" fill="#FFA048"></rect>
</g>
<path d="M11 24H14C14.5523 24 15 24.4477 15 25L11 24Z" fill="url(#paint3_linear_31_62)"></path>
<path d="M11 28.5H13C13.5523 28.5 14 28.9477 14 29.5L11 28.5Z" fill="url(#paint4_linear_31_62)"></path>
<path d="M11 26.5H14C14.5523 26.5 15 26.9477 15 27.5L11 26.5Z" fill="url(#paint5_linear_31_62)"></path>
<defs>
<filter id="filter0_f_31_62" x="2.46753" y="16" width="14.5325" height="14.6881" filterUnits="userSpaceOnUse" color-interpolation-filters="sRGB">
<feFlood flood-opacity="0" result="BackgroundImageFix"></feFlood>
<feBlend mode="normal" in="SourceGraphic" in2="BackgroundImageFix" result="shape"></feBlend>
<feGaussianBlur stdDeviation="1" result="effect1_foregroundBlur_31_62"></feGaussianBlur>
</filter>
<filter id="filter1_f_31_62" x="8.5" y="21.5" width="10" height="4" filterUnits="userSpaceOnUse" color-interpolation-filters="sRGB">
<feFlood flood-opacity="0" result="BackgroundImageFix"></feFlood>
<feBlend mode="normal" in="SourceGraphic" in2="BackgroundImageFix" result="shape"></feBlend>
<feGaussianBlur stdDeviation="0.75" result="effect1_foregroundBlur_31_62"></feGaussianBlur>
</filter>
<radialGradient id="paint0_radial_31_62" cx="0" cy="0" r="1" gradientUnits="userSpaceOnUse" gradientTransform="translate(15.5 22) rotate(-178.264) scale(16.5076 15.3937)">
<stop offset="0.0661917" stop-color="#FFEA67"></stop>
<stop offset="0.593499" stop-color="#FFC13F"></stop>
<stop offset="0.904482" stop-color="#DF9030"></stop>
</radialGradient>
<radialGradient id="paint1_radial_31_62" cx="0" cy="0" r="1" gradientUnits="userSpaceOnUse" gradientTransform="translate(15.5 22) rotate(-178.264) scale(16.5076 15.3937)">
<stop offset="0.0661917" stop-color="#FFEA67"></stop>
<stop offset="0.593499" stop-color="#FFC13F"></stop>
<stop offset="0.904482" stop-color="#DF9030"></stop>
</radialGradient>
<radialGradient id="paint2_radial_31_62" cx="0" cy="0" r="1" gradientUnits="userSpaceOnUse" gradientTransform="translate(10.5 22.5) rotate(172.235) scale(11.1018 11.3836)">
<stop offset="0.499571" stop-color="#FFEA67" stop-opacity="0"></stop>
<stop offset="0.851196" stop-color="#F9708E"></stop>
</radialGradient>
<linearGradient id="paint3_linear_31_62" x1="12.5" y1="24" x2="14" y2="25.5" gradientUnits="userSpaceOnUse">
<stop stop-color="#FA9428"></stop>
<stop offset="1" stop-color="#FA9428" stop-opacity="0"></stop>
</linearGradient>
<linearGradient id="paint4_linear_31_62" x1="11.5" y1="28.5" x2="13" y2="30" gradientUnits="userSpaceOnUse">
<stop stop-color="#FA9428"></stop>
<stop offset="1" stop-color="#FA9428" stop-opacity="0"></stop>
</linearGradient>
<linearGradient id="paint5_linear_31_62" x1="11.5" y1="26.5" x2="13" y2="28" gradientUnits="userSpaceOnUse">
<stop stop-color="#FA9428"></stop>
<stop offset="1" stop-color="#FA9428" stop-opacity="0"></stop>
</linearGradient>
</defs>
</svg>